<?xml version="1.0" standalone="no"?>
<!DOCTYPE svg PUBLIC "-//W3C//DTD SVG 20010904//EN"
 "http://www.w3.org/TR/2001/REC-SVG-20010904/DTD/svg10.dtd">
<svg version="1.0" xmlns="http://www.w3.org/2000/svg"
 width="707.000000pt" height="707.000000pt" viewBox="0 0 707.000000 707.000000"
 preserveAspectRatio="xMidYMid meet">
<metadata>
Created by potrace 1.14, written by Peter Selinger 2001-2017
</metadata>
<g transform="translate(0.000000,707.000000) scale(0.100000,-0.100000)"
fill="#000000" stroke="none">
<path d="M429 7054 c-59 -18 -131 -81 -159 -141 -48 -101 -22 -233 61 -307 67
-61 114 -72 322 -75 31 -1 40 -5 44 -22 3 -12 159 -233 346 -493 187 -259 352
-487 366 -508 61 -85 247 -344 258 -358 6 -8 78 -107 159 -220 81 -113 175
-243 209 -290 34 -47 162 -224 285 -395 122 -170 254 -351 292 -402 77 -102
188 -211 273 -268 l56 -36 -38 -26 c-147 -98 -227 -188 -460 -511 -109 -150
-205 -283 -213 -295 -19 -27 -203 -284 -227 -316 -10 -13 -38 -52 -63 -86 -66
-92 -101 -140 -580 -805 -592 -820 -657 -912 -664 -937 -7 -21 -12 -22 -115
-22 -59 1 -126 -4 -149 -10 -105 -29 -186 -139 -186 -254 1 -112 56 -197 158
-243 l60 -27 3065 0 3066 0 50 22 c100 44 155 122 163 232 7 104 -35 184 -128
244 -49 31 -88 38 -208 37 l-102 -1 -14 32 c-7 18 -30 55 -50 82 -20 28 -74
102 -120 165 -45 63 -131 183 -191 265 -60 83 -150 209 -202 280 -101 141
-180 250 -493 683 -113 156 -212 294 -220 307 -9 13 -25 36 -37 52 -12 15 -96
132 -187 258 -91 127 -169 235 -173 240 -5 6 -24 33 -43 60 -19 28 -37 52 -41
55 -3 3 -25 34 -50 70 -24 36 -46 67 -49 70 -3 3 -30 39 -61 80 -73 97 -146
170 -239 238 -92 68 -88 64 -72 69 29 11 151 109 213 173 36 37 190 240 342
451 151 211 279 389 284 394 5 6 24 33 44 60 36 50 201 279 533 740 99 138
219 304 267 370 47 66 188 261 313 434 124 172 229 324 232 337 5 20 13 24 43
24 161 2 219 9 260 30 62 31 116 91 136 149 44 134 -15 274 -143 338 -36 17
-155 18 -3108 19 -2518 1 -3078 -2 -3115 -12z m5413 -523 c8 -1 -28 -51 -420
-594 -207 -286 -216 -297 -236 -283 -226 160 -484 240 -766 240 -87 1 -133 -3
-237 -20 -139 -22 -358 -123 -538 -249 l-119 -83 -35 26 c-20 15 -38 29 -41
32 -18 19 -188 124 -255 158 -260 131 -492 165 -800 117 -151 -23 -352 -104
-487 -196 l-57 -38 -29 37 c-16 20 -92 125 -169 232 -77 107 -209 292 -294
410 l-155 215 2315 -2 c1274 -1 2319 -2 2323 -2z m-2145 -3287 c136 -33 267
-112 352 -210 22 -27 134 -177 247 -334 113 -157 212 -294 220 -305 8 -11 35
-49 61 -85 26 -36 193 -267 371 -515 179 -247 338 -468 354 -490 105 -143 446
-617 500 -695 l47 -68 -2319 0 c-2178 1 -2319 2 -2310 18 9 18 400 562 425
593 8 9 15 20 15 23 0 3 6 11 13 18 6 8 30 39 52 70 22 32 54 76 71 99 45 62
285 394 326 452 19 28 166 231 326 452 160 222 306 424 324 450 17 26 38 54
45 63 6 8 50 68 97 132 99 137 156 194 248 249 164 99 353 128 535 83z"/>
<path d="M3015 2389 c-55 -7 -121 -36 -146 -65 -9 -11 -27 -39 -39 -64 -22
-42 -23 -58 -25 -265 -2 -268 -1 -265 -95 -269 -24 -1 -25 -3 -28 -83 l-3 -83
39 0 c24 0 49 -8 63 -19 23 -18 23 -21 24 -243 1 -223 2 -226 28 -279 43 -87
117 -124 255 -128 l73 -2 -3 83 -3 83 -36 1 c-44 2 -74 17 -95 49 -13 20 -16
61 -17 237 -2 191 -4 216 -21 245 -11 17 -30 37 -43 44 l-23 12 29 18 c51 31
55 48 58 269 1 113 5 216 8 229 11 43 54 71 110 71 l36 0 -3 83 -3 82 -45 0
c-25 0 -68 -3 -95 -6z"/>
<path d="M3903 2387 c-4 -6 -8 -45 -8 -84 l0 -73 32 0 c18 0 34 1 36 2 1 1 17
-7 35 -17 45 -27 51 -60 50 -260 0 -93 2 -188 6 -211 7 -40 46 -94 69 -94 7 0
-3 -12 -20 -26 -46 -36 -54 -77 -55 -297 -1 -133 -5 -200 -14 -217 -15 -31
-52 -52 -93 -54 -16 -1 -33 -5 -38 -9 -4 -5 -8 -42 -8 -84 l-1 -76 91 6 c130
8 196 41 236 119 27 52 30 85 32 321 2 187 3 199 22 210 24 14 26 14 69 16
l35 1 -1 80 c-1 44 -4 80 -7 81 -3 1 -23 2 -44 3 -70 4 -72 10 -74 252 -2 245
-11 286 -69 346 -42 44 -102 65 -201 72 -51 4 -74 2 -80 -7z"/>
</g>
</svg>
