<svg role="img" xmlns="http://www.w3.org/2000/svg" version="1.1" x="0" y="0" viewBox="1.1582443714141846 0 97.6827621459961 99.99995422363281" height="113.24408455795675" width="110.62000040097716"><path d="M36.35 9.685c0.006-0.053 0.016-0.105 0.022-0.158l-0.238 0.238C36.207 9.739 36.278 9.711 36.35 9.685z"/>
    <title>Blog Logo</title>
    <path
        d="M36.765 7.639c0.196-0.682 0.445-1.341 0.746-1.973-0.003-0.001-0.006-0.002-0.009-0.003l-6.193 6.193c0.764-0.384 1.541-0.748 2.331-1.091L36.765 7.639z"
/><path
        d="M36.442 5.225c-0.298-0.12-0.595-0.236-0.89-0.349L24.546 15.881c0.044 0.018 0.09 0.035 0.134 0.052 1.045-0.773 2.127-1.503 3.242-2.189L36.442 5.225z"
/><path
        d="M23.455 15.477L34.459 4.472c-0.309-0.11-0.615-0.216-0.92-0.318L22.534 15.159C22.839 15.261 23.146 15.366 23.455 15.477z"
/><path
        d="M20.442 14.515c0.317 0.089 0.636 0.183 0.958 0.281L32.405 3.791c-0.322-0.099-0.642-0.192-0.958-0.281L20.442 14.515z"
/><path
        d="M18.255 13.966c0.331 0.072 0.667 0.151 1.004 0.235L30.264 3.196c-0.338-0.084-0.673-0.163-1.004-0.235L18.255 13.966z"
/><path
        d="M15.935 13.551c0.352 0.049 0.708 0.106 1.069 0.17L28.009 2.716c-0.36-0.064-0.717-0.121-1.069-0.17L15.935 13.551z"
/><path
        d="M13.425 13.325c0.381 0.013 0.771 0.04 1.166 0.074L25.596 2.394C25.2 2.359 24.812 2.333 24.43 2.32L13.425 13.325z"
/><path
        d="M19.746 2.772c-0.685 0.178-1.329 0.411-1.934 0.693l-4.489 4.489c0.467-0.999 1.076-1.889 1.838-2.651L4.156 16.309c-5.021 5.021-3.52 15.469 2.899 27.68 4.743 9.024 12.17 19.008 21.639 28.478 1.429 1.427 2.869 2.803 4.315 4.135l-5.006 5.007 12.558 2.145 12.557 2.144-2.142-12.56L48.831 60.78l-4.816 4.815c-1.446-1.332-2.887-2.707-4.315-4.135C27.678 49.438 18.947 36.586 14.824 25.926c-1.868-4.828-2.791-9.205-2.644-12.852L22.931 2.323c-0.461 0.018-0.91 0.054-1.347 0.106l-9.298 9.298c0.078-0.64 0.19-1.254 0.343-1.84L19.746 2.772z"
/><path
        d="M98.777 75.699L87.771 86.705c0.033 0.397 0.055 0.789 0.066 1.173l11.004-11.004C98.832 76.489 98.809 76.098 98.777 75.699z"
/><path
        d="M87.461 84.281c0.062 0.361 0.119 0.72 0.166 1.072l11.006-11.006c-0.047-0.352-0.105-0.711-0.168-1.072L87.461 84.281z"
/><path
        d="M86.988 82.019c0.082 0.339 0.16 0.674 0.23 1.007l11.006-11.005c-0.072-0.332-0.148-0.668-0.232-1.008L86.988 82.019z"
/><path
        d="M97.682 69.828c-0.088-0.318-0.182-0.638-0.279-0.961l-5.709 5.708c-0.6 1.083-1.244 2.141-1.928 3.169L97.682 69.828z"
/><path
        d="M97.043 67.731c-0.102-0.306-0.207-0.613-0.318-0.923l-2.561 2.561c-0.291 0.734-0.604 1.457-0.932 2.173L97.043 67.731z"
/><path
        d="M96.324 65.714c-0.113-0.295-0.229-0.593-0.348-0.893l-0.383 0.384c-0.176 0.605-0.363 1.206-0.562 1.801L96.324 65.714z"
/><path
        d="M55.797 96.183c-0.797-0.424-1.6-0.858-2.414-1.322l-2.826-1.612 2.91-2.909c-0.547 0.022-1.098 0.037-1.652 0.037-7.211 0-13.958-2.03-19.7-5.547l-9.263-1.581 3.112-3.112c-5.519-5.175-9.489-11.981-11.133-19.643-2.516-3.264-4.792-6.541-6.792-9.78C8.013 51.322 8 51.935 8 52.55c0 24.16 19.655 43.814 43.814 43.814C53.158 96.364 54.484 96.301 55.797 96.183z"
/><path
        d="M38.019 10.961c-8.251 2.745-15.419 7.881-20.681 14.582 0.231 0.579 0.476 1.167 0.737 1.763 0.64 1.465 1.359 2.955 2.147 4.461 5.082-7.698 12.899-13.439 22.057-15.826 1.517 2.19 4.046 3.629 6.907 3.629h5.257c2.861 0 5.393-1.439 6.908-3.629 16.256 4.237 28.291 19.043 28.291 36.609 0 12.566-6.162 23.718-15.619 30.602 2.326 1.007 4.549 1.797 6.629 2.357 9.174-8.037 14.979-19.833 14.979-32.959 0-19.342-12.598-35.794-30.02-41.589C65.498 4.898 60.535 0 54.443 0h-5.257C43.097 0 38.133 4.898 38.019 10.961zM49.187 5.988h5.257c1.352 0 2.578 0.523 3.502 1.373 0.002 0.004 0.004 0.01 0.004 0.014 0 0.573-2.15 1.972-6.133 1.972-3.985 0-6.135-1.399-6.135-1.972 0-0.004 0.002-0.01 0.003-0.014C46.608 6.511 47.836 5.988 49.187 5.988zM44.002 11.173c0-0.485 0.072-0.954 0.197-1.4 0.532 0.486 1.226 0.893 2.024 1.22v4.429C44.882 14.482 44.002 12.93 44.002 11.173zM47.684 16.133v-4.66c0.569 0.147 1.167 0.264 1.781 0.347v4.538h-0.278C48.664 16.357 48.16 16.278 47.684 16.133zM50.924 16.357v-4.404c0.296 0.015 0.593 0.023 0.892 0.023 0.295 0 0.594-0.008 0.889-0.023v4.404H50.924zM54.443 16.357h-0.277V11.82c0.615-0.083 1.213-0.199 1.781-0.347v4.66C55.471 16.278 54.967 16.357 54.443 16.357zM59.432 9.772c0.125 0.446 0.197 0.915 0.197 1.4 0 1.757-0.881 3.309-2.221 4.248v-4.428C58.205 10.665 58.898 10.258 59.432 9.772z"
/><path
        d="M64.578 79.228l0.625-0.624 0.289 0.164c9.441-4.945 15.9-14.841 15.9-26.218 0-16.31-13.268-29.578-29.576-29.578-11.794 0-21.996 6.938-26.742 16.947 0.689 1.038 1.408 2.079 2.153 3.12 3.823-9.852 13.403-16.854 24.589-16.854 14.535 0 26.363 11.827 26.363 26.365 0 13.657-10.439 24.921-23.758 26.234l0.543 3.175C58.373 81.596 61.611 80.652 64.578 79.228z"
/><path
        d="M51.814 29.035c-1.128 0-2.044 0.915-2.044 2.045v5.258c0 1.129 0.916 2.044 2.044 2.044 1.131 0 2.045-0.916 2.045-2.044V31.08C53.859 29.95 52.945 29.035 51.814 29.035z"
/><path
        d="M53.859 74.019v-5.257c0-0.936-0.627-1.722-1.484-1.966l1.355 7.935C53.812 74.508 53.859 74.27 53.859 74.019z"
/><path
        d="M68.027 54.594h5.258c1.129 0 2.045-0.915 2.045-2.044 0-1.13-0.916-2.045-2.045-2.045h-5.258c-1.129 0-2.045 0.916-2.045 2.045C65.982 53.679 66.898 54.594 68.027 54.594z"
/><path
        d="M37.648 52.55c0-1.13-0.915-2.045-2.044-2.045h-2.584c1.098 1.312 2.236 2.617 3.409 3.915C37.147 54.102 37.648 53.385 37.648 52.55z"
/><path
        d="M40.643 33.197c-0.419 0.242-0.563 0.778-0.321 1.197l2.569 4.449-1.222-4.498c-0.055-0.345-0.045-0.687 0.02-1.016C41.415 33.064 40.99 32.997 40.643 33.197z"
/><path
        d="M62.551 72.019c0.148 0 0.299-0.038 0.438-0.118 0.42-0.241 0.562-0.777 0.32-1.196l-2.629-4.553c-0.242-0.42-0.777-0.562-1.197-0.321-0.418 0.242-0.562 0.778-0.32 1.197l2.629 4.553C61.953 71.861 62.248 72.019 62.551 72.019z"
/><path
        d="M65.096 44.881c0.162 0.281 0.457 0.438 0.76 0.438 0.148 0 0.299-0.038 0.438-0.117l4.555-2.628c0.418-0.243 0.562-0.778 0.32-1.197-0.242-0.419-0.777-0.562-1.197-0.321l-4.555 2.629C64.998 43.926 64.854 44.462 65.096 44.881z"
/><path
        d="M38.535 44.881c0.243-0.419 0.099-0.955-0.32-1.197l-4.554-2.629c-0.419-0.241-0.956-0.098-1.197 0.321-0.242 0.419-0.098 0.955 0.321 1.197l4.553 2.629c0.139 0.079 0.289 0.117 0.438 0.117C38.078 45.32 38.372 45.163 38.535 44.881z"
/><path
        d="M71.168 63.723c0.242-0.42 0.098-0.955-0.32-1.197l-4.555-2.629c-0.42-0.241-0.955-0.099-1.197 0.32-0.242 0.42-0.098 0.956 0.32 1.198l4.555 2.628c0.137 0.08 0.287 0.117 0.438 0.117C70.711 64.16 71.006 64.004 71.168 63.723z"
/><path
        d="M61.791 33.518l-2.629 4.554c-0.242 0.419-0.098 0.955 0.32 1.197 0.139 0.08 0.289 0.117 0.438 0.117 0.303 0 0.598-0.157 0.76-0.438l2.629-4.553c0.242-0.419 0.1-0.956-0.32-1.197C62.568 32.955 62.033 33.099 61.791 33.518z"
/><path
        d="M65.619 81.698L54.613 92.703c2.826 1.611 5.574 2.972 8.203 4.069 9.732 4.061 17.807 4.458 22.033 0.231l11.006-11.006c-0.689 0.69-1.484 1.256-2.369 1.703l4.074-4.074c0.316-0.624 0.57-1.295 0.768-2.007l-6.855 6.855c-0.594 0.165-1.219 0.285-1.867 0.371l9.102-9.102c0.059-0.441 0.1-0.895 0.121-1.361L88.24 88.973c-2.336 0.113-4.977-0.219-7.846-0.96C75.93 86.86 70.912 84.716 65.619 81.698z"
/><path
        d="M48.497 49.814c0.019-0.019 0.038-0.037 0.057-0.056l0.421-0.354 3.335-2.802-5.295-13.446-0.152-0.386c-0.479-0.916-1.633-1.358-2.731-0.993-1.1 0.364-1.761 1.409-1.598 2.429l0.108 0.399 4.809 17.687C47.471 51.396 47.819 50.504 48.497 49.814z"
/><path
        d="M63.861 40.261c-0.791-0.777-2.016-0.838-2.879-0.195l-0.195 0.165-11.109 9.331-0.421 0.354c-0.019 0.019-0.039 0.037-0.057 0.055-1.416 1.441-1.395 3.758 0.047 5.173 0.304 0.297 0.646 0.527 1.01 0.698l0.27 0.114c1.312 0.491 2.847 0.204 3.892-0.859 0.02-0.019 0.035-0.039 0.055-0.058l0.346-0.428 9.127-11.276 0.162-0.2C64.734 42.261 64.652 41.038 63.861 40.261zM52.428 54.396c-1.02 0.338-2.12-0.214-2.458-1.234-0.338-1.019 0.215-2.12 1.234-2.458 1.02-0.338 2.119 0.214 2.459 1.234C54 52.956 53.447 54.058 52.428 54.396z"
/></svg>
