<?xml version="1.0" encoding="UTF-8"?>
<svg xmlns="http://www.w3.org/2000/svg" viewBox="0 0 164.13 176.42">
    <defs>
        <style>.d{fill:#fff;}.e{fill:#99979b;}</style>
    </defs>
    <path class="e"
          d="M96.32,74.11l27.68-38.39c-5.46-4.05-12.21-6.45-19.53-6.45-9.58,0-16.66,4.24-23.82,10.07-6.4,5.21-13.86,8.82-22.17,8.82-3.74,0-7.34-.63-10.69-1.79l19.99,27.73c3.34,4.64,8.54,7.3,14.26,7.3s10.92-2.66,14.26-7.3Z"/>
    <path class="d"
          d="M64.01,123.38v8.26c0,1.32-.68,1.92-1.8,1.92h-1.32v4.09h1.32c1.12,0,1.8,.6,1.8,1.92v8.26c0,4.25,2.28,6.53,6.81,6.53h2v-4.01h-.84c-2,0-2.97-1.12-2.97-3.05v-7.61c0-2.48-.76-3.57-2.36-4.09,1.6-.52,2.36-1.6,2.36-4.09v-7.61c0-1.92,.96-3.05,2.97-3.05h.84v-4.01h-2c-4.53,0-6.81,2.28-6.81,6.53Z"/>
    <path class="d"
          d="M91.27,116.84v4.01h.84c2.04,0,3.01,1.12,3.01,3.05v7.61c0,2.48,.72,3.57,2.32,4.09-1.6,.52-2.32,1.6-2.32,4.09v7.61c0,1.92-.96,3.05-3.01,3.05h-.84v4.01h2c4.53,0,6.85-2.28,6.85-6.53v-8.26c0-1.32,.68-1.92,1.76-1.92h1.36v-4.09h-1.36c-1.08,0-1.76-.6-1.76-1.92v-8.26c0-4.25-2.32-6.53-6.85-6.53h-2Z"/>
    <path class="d"
          d="M105.12,80.45L152.19,15.17c.42-.58,.7-1.22,.86-1.88h4.43c3.67,0,6.64-2.97,6.64-6.64s-2.97-6.64-6.64-6.64H6.64C2.97,0,0,2.98,0,6.64s2.97,6.64,6.64,6.64h4.43c.16,.66,.44,1.3,.86,1.88L59.01,80.45c2.31,3.2,5.16,5.81,8.4,7.76-3.23,1.95-6.09,4.56-8.4,7.76L11.94,161.25c-.42,.58-.7,1.22-.86,1.88H6.64c-3.67,0-6.64,2.97-6.64,6.64s2.97,6.64,6.64,6.64H157.49c3.67,0,6.64-2.97,6.64-6.64s-2.97-6.64-6.64-6.64h-4.43c-.16-.66-.44-1.3-.86-1.88l-47.08-65.28c-2.31-3.2-5.16-5.81-8.4-7.76,3.23-1.95,6.09-4.56,8.4-7.76Zm35.07,82.68H23.95l43.86-60.82c3.34-4.64,8.54-7.3,14.26-7.3s10.92,2.66,14.26,7.3l43.86,60.82ZM83.46,39.34c-7.16-5.83-14.24-10.07-23.82-10.07-7.32,0-14.07,2.4-19.52,6.45L23.95,13.29h116.23l-16.18,22.44c-7.38,10.23-17.01,11.31-20.75,11.31-8.31,0-13.38-2.49-19.78-7.7Z"/>
</svg>