<svg xmlns="http://www.w3.org/2000/svg" viewBox="0 0 164.13 176.42">
    <defs>
        <style>
            .d{fill:#fff;}.e{fill:#99979b;}.f{fill:none;stroke:#fff;stroke-linecap:round;stroke-miterlimit:10;stroke-width:10.84px;}
        </style>
    </defs>
    <g id="a"/>
    <g id="b">
        <g id="c">
            <path class="e"
                  d="M96.32,74.11l27.68-38.39c-5.46-4.05-12.21-6.45-19.53-6.45-9.58,0-16.66,4.24-23.82,10.07-6.4,5.21-13.86,8.82-22.17,8.82-3.74,0-7.34-.63-10.69-1.79l19.99,27.73c3.34,4.64,8.54,7.3,14.26,7.3s10.92-2.66,14.26-7.3Z"/>
            <path class="d"
                  d="M64.01,123.38v8.26c0,1.32-.68,1.92-1.8,1.92h-1.32v4.09h1.32c1.12,0,1.8,.6,1.8,1.92v8.26c0,4.25,2.28,6.53,6.81,6.53h2v-4.01h-.84c-2,0-2.97-1.12-2.97-3.05v-7.61c0-2.48-.76-3.57-2.36-4.09,1.6-.52,2.36-1.6,2.36-4.09v-7.61c0-1.92,.96-3.05,2.97-3.05h.84v-4.01h-2c-4.53,0-6.81,2.28-6.81,6.53Z"/>
            <path class="d"
                  d="M103.25,137.64h-1.36c-1.08,0-1.76,.6-1.76,1.92v8.26c0,4.25-2.32,6.53-6.85,6.53h-2v-4.01h.84c2.04,0,3.01-1.12,3.01-3.05v-7.61c0-2.48,.72-3.57,2.32-4.09-1.6-.52-2.32-1.6-2.32-4.09v-7.61c0-1.92-.96-3.05-3.01-3.05h-.84v-4.01h2c4.53,0,6.85,2.28,6.85,6.53v8.26c0,1.32,.68,1.92,1.76,1.92h1.36v4.09Z"/>
            <path class="f" d="M147.8,12l-47.08,65.28c-9.18,12.73-28.13,12.73-37.31,0L16.33,12"/>
            <path class="f" d="M16.33,164.42L63.41,99.14c9.18-12.73,28.13-12.73,37.31,0l47.08,65.28"/>
            <path class="d"
                  d="M157.49,13.29H6.64C2.97,13.29,0,10.31,0,6.64H0C0,2.97,2.97,0,6.64,0H157.49c3.67,0,6.64,2.97,6.64,6.64h0c0,3.67-2.97,6.64-6.64,6.64Z"/>
            <path class="d"
                  d="M157.49,176.42H6.64c-3.67,0-6.64-2.97-6.64-6.64H0c0-3.67,2.97-6.64,6.64-6.64H157.49c3.67,0,6.64,2.97,6.64,6.64h0c0,3.67-2.97,6.64-6.64,6.64Z"/>
            <path class="d"
                  d="M103.25,47.04c-8.31,0-13.38-2.49-19.78-7.7-7.16-5.83-14.24-10.07-23.82-10.07-7.32,0-14.07,2.4-19.53,6.45l27.68,38.39c3.34,4.64,8.54,7.3,14.26,7.3s10.92-2.66,14.26-7.3l27.68-38.39c-7.38,10.24-17.02,11.32-20.76,11.32Z"/>
        </g>
    </g>
</svg>