<svg xmlns="http://www.w3.org/2000/svg" xmlns:xlink="http://www.w3.org/1999/xlink" viewBox="0 0 164.13 176.42">
    <defs>
        <style>
            .k{stroke:#fabe00;stroke-linecap:round;stroke-miterlimit:10;stroke-width:10.84px;}.k,.l{fill:none;}.m{fill:url(#f);}.n{fill:url(#g);}.o{fill:url(#i);}.p{clip-path:url(#d);}.q{fill:url(#h);}.r{fill:url(#e);}.s{fill:url(#j);}
        </style>
        <clipPath id="d">
            <path class="l"
                  d="M58.5,48.17c8.31,0,15.77-3.62,22.17-8.82,7.16-5.83,14.24-10.07,23.82-10.07,18.12,0,32.82,14.69,32.82,32.82s-14.69,32.82-32.82,32.82c-8.67,0-16.55-3.37-22.42-8.86-5.87,5.49-13.75,8.86-22.42,8.86-18.12,0-32.82-14.69-32.82-32.82,0-8.86,3.52-16.9,9.23-22.8,5.87,5.5,13.76,8.88,22.44,8.88Z"/>
        </clipPath>
        <linearGradient id="e" x1="44.21" y1="56.11" x2="81.52" y2="26.87" gradientTransform="matrix(1, 0, 0, 1, 0, 0)"
                        gradientUnits="userSpaceOnUse">
            <stop offset="0" stop-color="#7056ff"/>
            <stop offset="1" stop-color="#3508aa"/>
        </linearGradient>
        <linearGradient id="f" x1="58.11" y1="42.47" x2="134.91" y2="71" xlink:href="#e"/>
        <linearGradient id="g" x1="66.79" y1="116.87" x2="67.03" y2="154.08" xlink:href="#e"/>
        <linearGradient id="h" x1="97.08" y1="116.8" x2="97.32" y2="154.02" xlink:href="#e"/>
        <linearGradient id="i" x1="0" y1="6.64" x2="164.13" y2="6.64" xlink:href="#e"/>
        <linearGradient id="j" x1="0" y1="169.78" x2="164.13" y2="169.78" xlink:href="#e"/>
    </defs>
    <g id="a"/>
    <g id="b">
        <g id="c">
            <g class="p">
                <path class="r" d="M145.95,13.93H11.38L60.89,82c8.78,12.07,26.77,12.07,35.55,0L145.95,13.93Z"/>
            </g>
            <path class="m"
                  d="M103.25,47.04c-8.31,0-13.38-2.49-19.78-7.7-7.16-5.83-14.24-10.07-23.82-10.07-7.32,0-14.07,2.4-19.53,6.45l27.68,38.39c3.34,4.64,8.54,7.3,14.26,7.3s10.92-2.66,14.26-7.3l27.68-38.39c-7.38,10.24-17.02,11.32-20.76,11.32Z"/>
            <path class="n"
                  d="M64.01,123.38v8.26c0,1.32-.68,1.92-1.8,1.92h-1.32v4.09h1.32c1.12,0,1.8,.6,1.8,1.92v8.26c0,4.25,2.28,6.53,6.81,6.53h2v-4.01h-.84c-2,0-2.97-1.12-2.97-3.05v-7.61c0-2.48-.76-3.57-2.36-4.09,1.6-.52,2.36-1.6,2.36-4.09v-7.61c0-1.92,.96-3.05,2.97-3.05h.84v-4.01h-2c-4.53,0-6.81,2.28-6.81,6.53Z"/>
            <path class="q"
                  d="M103.25,137.64h-1.36c-1.08,0-1.76,.6-1.76,1.92v8.26c0,4.25-2.32,6.53-6.85,6.53h-2v-4.01h.84c2.04,0,3.01-1.12,3.01-3.05v-7.61c0-2.48,.72-3.57,2.32-4.09-1.6-.52-2.32-1.6-2.32-4.09v-7.61c0-1.92-.96-3.05-3.01-3.05h-.84v-4.01h2c4.53,0,6.85,2.28,6.85,6.53v8.26c0,1.32,.68,1.92,1.76,1.92h1.36v4.09Z"/>
            <path class="k" d="M147.8,12l-47.08,65.28c-9.18,12.73-28.13,12.73-37.31,0L16.33,12"/>
            <path class="k" d="M16.33,164.42L63.41,99.14c9.18-12.73,28.13-12.73,37.31,0l47.08,65.28"/>
            <path class="o"
                  d="M157.49,13.29H6.64C2.97,13.29,0,10.31,0,6.64H0C0,2.97,2.97,0,6.64,0H157.49c3.67,0,6.64,2.97,6.64,6.64h0c0,3.67-2.97,6.64-6.64,6.64Z"/>
            <path class="s"
                  d="M157.49,176.42H6.64c-3.67,0-6.64-2.97-6.64-6.64H0c0-3.67,2.97-6.64,6.64-6.64H157.49c3.67,0,6.64,2.97,6.64,6.64h0c0,3.67-2.97,6.64-6.64,6.64Z"/>
        </g>
    </g>
</svg>