<?xml version="1.0" encoding="iso-8859-1"?>
<svg version="1.1" id="Capa_1" xmlns="http://www.w3.org/2000/svg" x="0px" y="0px"
	 viewBox="0 0 24.912 24.912" style="enable-background:new 0 0 24.912 24.912;" xml:space="preserve">
<g>
	<path d="M3.692,17.517C1.656,17.517,0,19.173,0,21.211C0,23.244,1.656,24.9,3.692,24.9s3.694-1.657,3.694-3.689
		C7.387,19.173,5.729,17.517,3.692,17.517z"/>
	<path d="M0.384,8.142C0.173,8.142,0,8.315,0,8.527v4.688c0,0.211,0.173,0.383,0.384,0.383c6.02,0,10.919,4.898,10.919,10.92
		c0,0.209,0.171,0.383,0.384,0.383h4.689h0.016c0.215,0,0.387-0.173,0.387-0.383l-0.018-0.121C16.692,15.423,9.37,8.142,0.384,8.142
		z"/>
	<path d="M24.89,24.397C24.825,10.936,13.854,0.011,0.384,0.011C0.173,0.011,0,0.183,0,0.397v4.824c0,0.212,0.173,0.383,0.384,0.383
		c10.429,0,18.913,8.486,18.913,18.914c0,0.209,0.172,0.383,0.382,0.383h4.825h0.02c0.21,0,0.388-0.173,0.388-0.383L24.89,24.397z"
		/>
</g>
</svg>
